<svg xmlns="http://www.w3.org/2000/svg" width="32" height="32" viewBox="0 0 32 32">
  <g fill="none" fill-rule="evenodd">
    <path fill="#F6851B" d="M29.774 3.986L17.924 12.81l2.188-5.17z"/>
    <path fill="#E2761B" d="M2.226 3.986l11.73 8.91L12.02 7.64m25.557 11.72l-3.154 4.83 6.746 1.856 1.936-6.573zm-34.935.113L.58 26.16l6.733-1.856-3.14-4.83"/>
    <path fill="#E4761B" d="M7.088 21.36l-1.888 2.854 6.773.295.243-7.31m10.797 4.161l.23 7.31 6.773-.295-1.889-2.854m3.73-9.177l-6.746-1.856.628 3.487-.704 3.406.876.679h5.484m-22.55-5.716L2.643 13.498l2.458 4.462h5.497l.863-.679-.704-3.406"/>
    <path fill="#D7C1B3" d="M10.461 17.135l.863.678 5.936 1.843-.217-4.522m5.914 4.522l5.923-1.843.876-.678-6.825 5.163"/>
    <path fill="#E4761B" d="M16.96 23.808l.217-7.31-1.401.38h-3.205l-1.375-.38.23 7.31L5.2 24.219l2.174 1.778 5.197 3.591 5.21-3.591 2.174-1.778"/>
    <path fill="#C0AD9E" d="M16.957 15.656l-5.923 1.843.55 3.075-.062-.876 5.435-4.042m-.794 0l5.936-1.843-.55 3.075.062-.876-5.448 4.042"/>
    <path fill="#361A0B" d="M11.573 10.753l.384 7.525.678-5.402m7.735-2.123l-.666 5.402.385-7.525"/>
    <path fill="#F6851B" d="M20.112 7.64l.758 5.113-.385 7.525 1.082-2.84.826-.679m-14.836 0l.826.679 1.082 2.84-.371-7.525L10 7.64"/>
    <path fill="#E2761B" d="M9.507 16.759l.588 3.815-.398-2.75m12.996 2.75l.588-3.815.41 1.065"/>
    <path fill="#763D16" d="M29.774 3.986l-9.662 4.267.758 5.113 1.095-2.161 7.81 2.293m-27.549 0l7.823-2.293 1.082 2.161.77-5.113L2.227 3.986M10.461 17.135l-3.904 2.338 3.648.23m11.59-2.568l-.256 2.568 3.648-.23"/>
    <path fill="#E4761B" d="M6.557 19.473l.743 4.746-.5-3.68m18.9 3.68l.743-4.746.244 1.066M12.57 11.878l-.512 1.278 1.889 8.5.423-11.174m6.26.271l-.41 11.174 1.889-8.5-.512-1.278"/>
    <path fill="#F6851B" d="M19.09 12.156l-1.89 8.5.679.526 5.448-4.042.588-3.815m-14.408 3.815l.588 3.815 5.435 4.042.678-.526-1.888-8.5"/>
    <path fill="#C0AD9E" d="M19.142 24.346l.064.873-.282-.23m-5.848-.23l-.281.23.064-.873"/>
    <path fill="#161616" d="M11.982 16.813l5.435-4.042.704 4.364m-5.55-4.364l-.589 4.364 5.435 4.042"/>
  </g>
</svg>